<svg xmlns="http://www.w3.org/2000/svg" viewBox="0 0 512 512" role="img" aria-label="Korven logo">
  <circle cx="256" cy="256" r="250" fill="#f2f2f2" />
  <path
    fill="#000"
    d="M33 150c24-49 74-91 138-113 43-15 89-20 134-12 66 11 124 49 162 104 12 17 22 36 30 56-13-5-27-9-42-10-36-3-71 8-104 20-37 13-77 23-117 18-30-4-58-17-85-30-37-18-77-30-118-33 1 0 1 0 2 0z"
  />
  <path
    fill="#000"
    d="M86 398c-35-41-55-95-55-152 0-9 1-19 2-28 40 3 79 16 115 33 27 13 56 27 87 31 44 6 86-6 126-20 31-11 62-22 95-20 20 2 39 9 56 21 0 6 0 11-1 17-7-6-16-10-26-12-20-3-40 0-60 5-31 7-60 20-91 29-26 8-55 12-82 6-14-3-27-9-40-15-30-14-62-26-96-23-6 0-12 2-18 3z"
  />
  <path
    fill="#000"
    d="M108 438c8-13 22-22 36-30 37-20 79-25 120-23 43 2 86 14 129 8 29-4 56-17 83-27 8-3 16-6 24-7-43 93-138 153-244 153-57 0-111-17-157-46 2-10 5-19 9-28z"
  />
  <circle cx="286" cy="256" r="9" fill="#f2f2f2" />
</svg>
